<svg version="1.1" xmlns="http://www.w3.org/2000/svg" viewBox="0 0 1206.6667785644534 597.0747145458728" width="3620.0003356933603" height="1791.2241436376185">
  <!-- svg-source:excalidraw -->
  
  <defs>
    <style class="style-fonts">
      @font-face {
        font-family: "Virgil";
        src: url("https://excalidraw.com/Virgil.woff2");
      }
      @font-face {
        font-family: "Cascadia";
        src: url("https://excalidraw.com/Cascadia.woff2");
      }
    </style>
  </defs>
  <rect x="0" y="0" width="1206.6667785644534" height="597.0747145458728" fill="#ffffff"></rect><g stroke-linecap="round" transform="translate(228.66677856445312 10) rotate(0 211.5 23.5)"><path d="M0 0 C153.75 0, 307.49 0, 423 0 M0 0 C100.81 0, 201.63 0, 423 0 M423 0 C423 15.19, 423 30.37, 423 47 M423 0 C423 15, 423 30, 423 47 M423 47 C267.21 47, 111.43 47, 0 47 M423 47 C257.94 47, 92.89 47, 0 47 M0 47 C0 37.49, 0 27.98, 0 0 M0 47 C0 34.66, 0 22.32, 0 0" stroke="#d9480f" stroke-width="1" fill="none"></path></g><g transform="translate(354.6667785644531 21) rotate(0 85.5 12.5)"><text x="85.5" y="17" font-family="Virgil, Segoe UI Emoji" font-size="20px" fill="#d9480f" text-anchor="middle" style="white-space: pre;" direction="ltr">Angular UI Client</text></g><g stroke-linecap="round" transform="translate(743.3334045410156 108.33331298828125) rotate(0 226.66668701171886 175.3333282470703)"><path d="M0 0 C94.4 0, 188.8 0, 453.33 0 M0 0 C92.35 0, 184.7 0, 453.33 0 M453.33 0 C453.33 126.6, 453.33 253.2, 453.33 350.67 M453.33 0 C453.33 139.76, 453.33 279.51, 453.33 350.67 M453.33 350.67 C304.19 350.67, 155.04 350.67, 0 350.67 M453.33 350.67 C325.2 350.67, 197.08 350.67, 0 350.67 M0 350.67 C0 241.38, 0 132.1, 0 0 M0 350.67 C0 261.93, 0 173.19, 0 0" stroke="#343a40" stroke-width="1" fill="none"></path></g><g stroke-linecap="round" transform="translate(757.3334655761719 125.6666259765625) rotate(0 98 135.66668701171875)"><path d="M0 0 C77.89 0, 155.78 0, 196 0 M0 0 C53.11 0, 106.23 0, 196 0 M196 0 C196 99.41, 196 198.81, 196 271.33 M196 0 C196 88.94, 196 177.87, 196 271.33 M196 271.33 C144.11 271.33, 92.22 271.33, 0 271.33 M196 271.33 C130.23 271.33, 64.47 271.33, 0 271.33 M0 271.33 C0 181.25, 0 91.17, 0 0 M0 271.33 C0 202.54, 0 133.74, 0 0" stroke="#087f5b" stroke-width="1" fill="none"></path></g><g stroke-linecap="round" transform="translate(970.3334045410156 123.99993896484375) rotate(0 94.66671752929688 137.3333740234375)"><path d="M0 0 C65.46 0, 130.91 0, 189.33 0 M0 0 C38.27 0, 76.55 0, 189.33 0 M189.33 0 C189.33 87.03, 189.33 174.06, 189.33 274.67 M189.33 0 C189.33 109.08, 189.33 218.16, 189.33 274.67 M189.33 274.67 C122.68 274.67, 56.03 274.67, 0 274.67 M189.33 274.67 C131.37 274.67, 73.41 274.67, 0 274.67 M0 274.67 C0 168.13, 0 61.6, 0 0 M0 274.67 C0 200.41, 0 126.14, 0 0" stroke="#c92a2a" stroke-width="1" fill="none"></path></g><g transform="translate(811.3334655761719 425.6666259765625) rotate(0 37.5 12.5)"><text x="0" y="18" font-family="Virgil, Segoe UI Emoji" font-size="20px" fill="#087f5b" text-anchor="start" style="white-space: pre;" direction="ltr">Commad</text></g><g transform="translate(1054.3335266113281 425.66668701171875) rotate(0 27.5 12.5)"><text x="0" y="18" font-family="Virgil, Segoe UI Emoji" font-size="20px" fill="#c92a2a" text-anchor="start" style="white-space: pre;" direction="ltr">Query</text></g><g transform="translate(816.0000915527344 467.33331298828125) rotate(0 148 12.5)"><text x="0" y="18" font-family="Virgil, Segoe UI Emoji" font-size="20px" fill="#343a40" text-anchor="start" style="white-space: pre;" direction="ltr">Infraction-management-service</text></g><g stroke-linecap="round" transform="translate(772.6669006347656 215.66665649414062) rotate(0 82 17.5)"><path d="M0 0 C43.98 0, 87.96 0, 164 0 M0 0 C35.36 0, 70.71 0, 164 0 M164 0 C164 12.6, 164 25.21, 164 35 M164 0 C164 9.26, 164 18.51, 164 35 M164 35 C105.78 35, 47.56 35, 0 35 M164 35 C116.57 35, 69.13 35, 0 35 M0 35 C0 22.9, 0 10.79, 0 0 M0 35 C0 23.31, 0 11.62, 0 0" stroke="#087f5b" stroke-width="1" fill="none"></path></g><g transform="translate(777.6669006347656 220.66665649414062) rotate(0 77 12.5)"><text x="77" y="17" font-family="Virgil, Segoe UI Emoji" font-size="20px" fill="#087f5b" text-anchor="middle" style="white-space: pre;" direction="ltr">CommandHandler</text></g><g stroke-linecap="round" transform="translate(767.0001525878906 261.1666259765625) rotate(0 90 16)"><path d="M0 0 C63.31 0, 126.63 0, 180 0 M0 0 C39.59 0, 79.18 0, 180 0 M180 0 C180 10.78, 180 21.57, 180 32 M180 0 C180 9.15, 180 18.29, 180 32 M180 32 C109.5 32, 39 32, 0 32 M180 32 C131.75 32, 83.49 32, 0 32 M0 32 C0 21.37, 0 10.73, 0 0 M0 32 C0 25.2, 0 18.41, 0 0" stroke="#e67700" stroke-width="1" fill="none"></path></g><g transform="translate(775.5001525878906 267.1666259765625) rotate(0 81.5 10)"><text x="81.5" y="14" font-family="Virgil, Segoe UI Emoji" font-size="16px" fill="#e67700" text-anchor="middle" style="white-space: pre;" direction="ltr">EventSourcingHandler</text></g><g stroke-linecap="round" transform="translate(869.3334655761719 295.9999694824219) rotate(0 85.66668701171875 15.333328247070312)"><path d="M0 0 C0 0, 0 0, 0 0 M0 0 C0 0, 0 0, 0 0 M-0.26 6.4 C1.26 4.65, 2.78 2.89, 4.99 0.36 M-0.26 6.4 C1.8 4.02, 3.87 1.65, 4.99 0.36 M0.13 12.04 C3.79 7.84, 7.44 3.64, 10.63 -0.03 M0.13 12.04 C2.88 8.88, 5.62 5.73, 10.63 -0.03 M-0.13 18.44 C4.88 12.68, 9.88 6.92, 15.62 0.33 M-0.13 18.44 C4.95 12.6, 10.02 6.76, 15.62 0.33 M0.27 24.08 C7.79 15.43, 15.31 6.78, 21.26 -0.07 M0.27 24.08 C7.51 15.74, 14.76 7.41, 21.26 -0.07 M0 30.48 C7.42 21.94, 14.84 13.41, 26.25 0.29 M0 30.48 C9.12 19.99, 18.23 9.51, 26.25 0.29 M3.02 33.1 C11.81 23, 20.59 12.89, 31.89 -0.1 M3.02 33.1 C13.12 21.49, 23.22 9.87, 31.89 -0.1 M8.01 33.46 C18.94 20.89, 29.86 8.33, 36.88 0.26 M8.01 33.46 C17.66 22.36, 27.32 11.25, 36.88 0.26 M13.65 33.07 C23.68 21.54, 33.71 10, 42.52 -0.14 M13.65 33.07 C25.18 19.81, 36.71 6.54, 42.52 -0.14 M18.64 33.43 C26.82 24.03, 34.99 14.62, 47.51 0.22 M18.64 33.43 C27.76 22.94, 36.88 12.45, 47.51 0.22 M24.28 33.03 C30.99 25.32, 37.7 17.6, 53.15 -0.17 M24.28 33.03 C32.48 23.6, 40.68 14.18, 53.15 -0.17 M29.27 33.39 C39.64 21.46, 50.01 9.53, 58.14 0.19 M29.27 33.39 C37.62 23.79, 45.97 14.18, 58.14 0.19 M34.91 33 C43.27 23.39, 51.62 13.78, 63.78 -0.21 M34.91 33 C42.39 24.4, 49.86 15.8, 63.78 -0.21 M39.9 33.36 C47.22 24.94, 54.54 16.52, 68.77 0.15 M39.9 33.36 C46.19 26.12, 52.49 18.88, 68.77 0.15 M45.54 32.97 C52.24 25.26, 58.94 17.55, 74.41 -0.24 M45.54 32.97 C52.63 24.81, 59.72 16.66, 74.41 -0.24 M50.53 33.33 C59.12 23.45, 67.7 13.58, 79.4 0.12 M50.53 33.33 C57.2 25.65, 63.87 17.98, 79.4 0.12 M56.17 32.93 C66.53 21.01, 76.89 9.1, 85.04 -0.28 M56.17 32.93 C62.83 25.28, 69.48 17.62, 85.04 -0.28 M61.16 33.29 C70 23.13, 78.84 12.96, 90.03 0.08 M61.16 33.29 C67.6 25.89, 74.03 18.49, 90.03 0.08 M66.8 32.9 C76.98 21.19, 87.17 9.47, 95.67 -0.31 M66.8 32.9 C74.49 24.06, 82.17 15.22, 95.67 -0.31 M71.79 33.26 C82.76 20.64, 93.72 8.03, 100.66 0.05 M71.79 33.26 C79.12 24.83, 86.45 16.4, 100.66 0.05 M77.43 32.86 C85.53 23.55, 93.63 14.23, 106.3 -0.34 M77.43 32.86 C85.25 23.87, 93.06 14.88, 106.3 -0.34 M82.42 33.22 C91.16 23.17, 99.91 13.11, 111.29 0.02 M82.42 33.22 C92.51 21.61, 102.61 10, 111.29 0.02 M87.41 33.58 C98.78 20.5, 110.15 7.42, 116.27 0.38 M87.41 33.58 C93.98 26.03, 100.55 18.47, 116.27 0.38 M93.05 33.19 C102.98 21.77, 112.9 10.35, 121.92 -0.02 M93.05 33.19 C101.76 23.17, 110.48 13.14, 121.92 -0.02 M98.04 33.55 C107.53 22.63, 117.03 11.7, 126.91 0.34 M98.04 33.55 C109.19 20.72, 120.33 7.9, 126.91 0.34 M103.68 33.15 C111.07 24.66, 118.45 16.16, 132.55 -0.05 M103.68 33.15 C111.4 24.27, 119.12 15.4, 132.55 -0.05 M108.67 33.51 C117.49 23.37, 126.31 13.22, 137.54 0.31 M108.67 33.51 C116.21 24.84, 123.75 16.16, 137.54 0.31 M114.31 33.12 C122.29 23.94, 130.27 14.76, 143.18 -0.09 M114.31 33.12 C124.97 20.86, 135.62 8.61, 143.18 -0.09 M119.3 33.48 C128.78 22.57, 138.27 11.66, 148.17 0.27 M119.3 33.48 C126.04 25.72, 132.78 17.97, 148.17 0.27 M124.94 33.08 C134.39 22.21, 143.84 11.35, 153.81 -0.12 M124.94 33.08 C133.47 23.28, 141.99 13.47, 153.81 -0.12 M129.93 33.44 C141.1 20.59, 152.27 7.74, 158.8 0.24 M129.93 33.44 C140 21.85, 150.08 10.26, 158.8 0.24 M135.57 33.05 C141.77 25.92, 147.97 18.79, 164.44 -0.16 M135.57 33.05 C144.23 23.09, 152.88 13.13, 164.44 -0.16 M140.56 33.41 C147.9 24.97, 155.24 16.53, 169.43 0.2 M140.56 33.41 C149.78 22.8, 159 12.19, 169.43 0.2 M146.2 33.02 C152.37 25.92, 158.54 18.83, 173.1 2.07 M146.2 33.02 C151.65 26.75, 157.09 20.49, 173.1 2.07 M151.19 33.38 C157.61 25.99, 164.03 18.6, 173.49 7.72 M151.19 33.38 C158.38 25.1, 165.57 16.83, 173.49 7.72 M156.83 32.98 C162.51 26.45, 168.18 19.93, 173.23 14.11 M156.83 32.98 C163.2 25.66, 169.57 18.33, 173.23 14.11 M161.82 33.34 C164.54 30.21, 167.26 27.08, 173.63 19.76 M161.82 33.34 C164.19 30.61, 166.56 27.89, 173.63 19.76 M167.46 32.95 C168.78 31.43, 170.11 29.9, 173.37 26.15 M167.46 32.95 C168.69 31.53, 169.92 30.12, 173.37 26.15" stroke="#228be6" stroke-width="0.5" fill="none"></path><path d="M0 0 C49.71 0, 99.42 0, 171.33 0 M0 0 C47.36 0, 94.72 0, 171.33 0 M171.33 0 C171.33 9, 171.33 17.99, 171.33 30.67 M171.33 0 C171.33 11.79, 171.33 23.57, 171.33 30.67 M171.33 30.67 C134.68 30.67, 98.02 30.67, 0 30.67 M171.33 30.67 C122.12 30.67, 72.9 30.67, 0 30.67 M0 30.67 C0 21.76, 0 12.86, 0 0 M0 30.67 C0 22.73, 0 14.79, 0 0" stroke="#343a40" stroke-width="1" fill="none"></path></g><g transform="translate(917.5001525878906 301.3332977294922) rotate(0 37.5 10)"><text x="37.5" y="14" font-family="Virgil, Segoe UI Emoji" font-size="16px" fill="#343a40" text-anchor="middle" style="white-space: pre;" direction="ltr">EventBus</text></g><g stroke-linecap="round" transform="translate(982.6668395996094 256.33331298828125) rotate(0 61.5 16)"><path d="M0 0 C45.87 0, 91.75 0, 123 0 M0 0 C28.27 0, 56.54 0, 123 0 M123 0 C123 9.57, 123 19.13, 123 32 M123 0 C123 12.28, 123 24.57, 123 32 M123 32 C84.29 32, 45.57 32, 0 32 M123 32 C97.15 32, 71.29 32, 0 32 M0 32 C0 19.37, 0 6.73, 0 0 M0 32 C0 23.64, 0 15.28, 0 0" stroke="#e67700" stroke-width="1" fill="none"></path></g><g transform="translate(995.6668395996094 262.33331298828125) rotate(0 48.5 10)"><text x="48.5" y="14" font-family="Virgil, Segoe UI Emoji" font-size="16px" fill="#e67700" text-anchor="middle" style="white-space: pre;" direction="ltr">EventHander</text></g><g stroke-linecap="round" transform="translate(1025.3334655761719 209.6666259765625) rotate(0 63.33331298828125 17.333328247070312)"><path d="M0 0 C30.21 0, 60.42 0, 126.67 0 M0 0 C32.13 0, 64.26 0, 126.67 0 M126.67 0 C126.67 10.8, 126.67 21.6, 126.67 34.67 M126.67 0 C126.67 13.22, 126.67 26.44, 126.67 34.67 M126.67 34.67 C98.97 34.67, 71.28 34.67, 0 34.67 M126.67 34.67 C100.21 34.67, 73.74 34.67, 0 34.67 M0 34.67 C0 21.98, 0 9.29, 0 0 M0 34.67 C0 22.69, 0 10.71, 0 0" stroke="#1864ab" stroke-width="1" fill="none"></path></g><g transform="translate(1038.6667785644531 216.9999542236328) rotate(0 50 10)"><text x="50" y="14" font-family="Virgil, Segoe UI Emoji" font-size="16px" fill="#1864ab" text-anchor="middle" style="white-space: pre;" direction="ltr">QueryHandler</text></g><g stroke-linecap="round" transform="translate(812.6667785644531 369) rotate(0 38 25)"><path d="M76 25 C76 26.3, 75.84 27.62, 75.53 28.91 C75.22 30.2, 74.75 31.49, 74.14 32.73 C73.53 33.97, 72.76 35.19, 71.86 36.35 C70.96 37.51, 69.91 38.64, 68.74 39.69 C67.58 40.75, 66.27 41.76, 64.87 42.68 C63.47 43.6, 61.94 44.46, 60.34 45.23 C58.73 45.99, 57.02 46.68, 55.25 47.28 C53.49 47.87, 51.63 48.37, 49.74 48.78 C47.86 49.18, 45.9 49.49, 43.94 49.69 C41.99 49.9, 39.98 50, 38 50 C36.02 50, 34.01 49.9, 32.06 49.69 C30.1 49.49, 28.14 49.18, 26.26 48.78 C24.37 48.37, 22.51 47.87, 20.75 47.28 C18.98 46.68, 17.27 45.99, 15.66 45.23 C14.06 44.46, 12.53 43.6, 11.13 42.68 C9.73 41.76, 8.42 40.75, 7.26 39.69 C6.09 38.64, 5.04 37.51, 4.14 36.35 C3.24 35.19, 2.47 33.97, 1.86 32.73 C1.25 31.49, 0.78 30.2, 0.47 28.91 C0.16 27.62, 0 26.3, 0 25 C0 23.7, 0.16 22.38, 0.47 21.09 C0.78 19.8, 1.25 18.51, 1.86 17.27 C2.47 16.03, 3.24 14.81, 4.14 13.65 C5.04 12.49, 6.09 11.36, 7.26 10.31 C8.42 9.25, 9.73 8.24, 11.13 7.32 C12.53 6.4, 14.06 5.54, 15.66 4.77 C17.27 4.01, 18.98 3.32, 20.75 2.72 C22.51 2.13, 24.37 1.63, 26.26 1.22 C28.14 0.82, 30.1 0.51, 32.06 0.31 C34.01 0.1, 36.02 0, 38 0 C39.98 0, 41.99 0.1, 43.94 0.31 C45.9 0.51, 47.86 0.82, 49.74 1.22 C51.63 1.63, 53.49 2.13, 55.25 2.72 C57.02 3.32, 58.73 4.01, 60.34 4.77 C61.94 5.54, 63.47 6.4, 64.87 7.32 C66.27 8.24, 67.58 9.25, 68.74 10.31 C69.91 11.36, 70.96 12.49, 71.86 13.65 C72.76 14.81, 73.53 16.03, 74.14 17.27 C74.75 18.51, 75.22 19.8, 75.53 21.09 C75.84 22.38, 75.92 24.35, 76 25 C76.08 25.65, 76.08 24.35, 76 25" stroke="#087f5b" stroke-width="1" fill="none"></path></g><g transform="translate(824.1667785644531 374) rotate(0 26.5 20)"><text x="26.5" y="14" font-family="Virgil, Segoe UI Emoji" font-size="16px" fill="#087f5b" text-anchor="middle" style="white-space: pre;" direction="ltr">Event </text><text x="26.5" y="34" font-family="Virgil, Segoe UI Emoji" font-size="16px" fill="#087f5b" text-anchor="middle" style="white-space: pre;" direction="ltr">Store</text></g><g stroke-linecap="round" transform="translate(1024.6667175292969 357.6666564941406) rotate(0 45.5 35)"><path d="M91 35 C91 36.66, 90.84 38.34, 90.54 39.98 C90.23 41.62, 89.77 43.27, 89.16 44.86 C88.55 46.45, 87.78 48.03, 86.89 49.54 C85.99 51.05, 84.94 52.53, 83.78 53.92 C82.61 55.32, 81.3 56.67, 79.89 57.92 C78.47 59.17, 76.93 60.36, 75.3 61.45 C73.66 62.54, 71.91 63.55, 70.1 64.44 C68.28 65.34, 66.36 66.15, 64.4 66.84 C62.44 67.53, 60.39 68.11, 58.32 68.58 C56.25 69.05, 54.11 69.41, 51.98 69.64 C49.84 69.88, 47.66 70, 45.5 70 C43.34 70, 41.16 69.88, 39.02 69.64 C36.89 69.41, 34.75 69.05, 32.68 68.58 C30.61 68.11, 28.56 67.53, 26.6 66.84 C24.64 66.15, 22.72 65.34, 20.9 64.44 C19.09 63.55, 17.34 62.54, 15.7 61.45 C14.07 60.36, 12.53 59.17, 11.11 57.92 C9.7 56.67, 8.39 55.32, 7.22 53.92 C6.06 52.53, 5.01 51.05, 4.11 49.54 C3.22 48.03, 2.45 46.45, 1.84 44.86 C1.23 43.27, 0.77 41.62, 0.46 39.98 C0.16 38.34, 0 36.66, 0 35 C0 33.34, 0.16 31.66, 0.46 30.02 C0.77 28.38, 1.23 26.73, 1.84 25.14 C2.45 23.55, 3.22 21.97, 4.11 20.46 C5.01 18.95, 6.06 17.47, 7.22 16.08 C8.39 14.68, 9.7 13.33, 11.11 12.08 C12.53 10.83, 14.07 9.64, 15.7 8.55 C17.34 7.46, 19.09 6.45, 20.9 5.56 C22.72 4.66, 24.64 3.85, 26.6 3.16 C28.56 2.47, 30.61 1.89, 32.68 1.42 C34.75 0.95, 36.89 0.59, 39.02 0.36 C41.16 0.12, 43.34 0, 45.5 0 C47.66 0, 49.84 0.12, 51.98 0.36 C54.11 0.59, 56.25 0.95, 58.32 1.42 C60.39 1.89, 62.44 2.47, 64.4 3.16 C66.36 3.85, 68.28 4.66, 70.1 5.56 C71.91 6.45, 73.66 7.46, 75.3 8.55 C76.93 9.64, 78.47 10.83, 79.89 12.08 C81.3 13.33, 82.61 14.68, 83.78 16.08 C84.94 17.47, 85.99 18.95, 86.89 20.46 C87.78 21.97, 88.55 23.55, 89.16 25.14 C89.77 26.73, 90.23 28.38, 90.54 30.02 C90.84 31.66, 90.92 34.17, 91 35 C91.08 35.83, 91.08 34.17, 91 35" stroke="#c92a2a" stroke-width="1" fill="none"></path></g><g transform="translate(1043.6667175292969 362.6666564941406) rotate(0 26.5 30)"><text x="26.5" y="14" font-family="Virgil, Segoe UI Emoji" font-size="16px" fill="#c92a2a" text-anchor="middle" style="white-space: pre;" direction="ltr">Query </text><text x="26.5" y="34" font-family="Virgil, Segoe UI Emoji" font-size="16px" fill="#c92a2a" text-anchor="middle" style="white-space: pre;" direction="ltr">Data </text><text x="26.5" y="54" font-family="Virgil, Segoe UI Emoji" font-size="16px" fill="#c92a2a" text-anchor="middle" style="white-space: pre;" direction="ltr">Store</text></g><g stroke-linecap="round" transform="translate(828.6667785644531 176.66661071777344) rotate(0 58.5 15)"><path d="M0 0 C0 0, 0 0, 0 0 M0 0 C0 0, 0 0, 0 0 M-0.26 6.4 C1.07 4.87, 2.4 3.33, 4.99 0.36 M-0.26 6.4 C1.02 4.93, 2.3 3.46, 4.99 0.36 M0.13 12.04 C3.61 8.04, 7.09 4.04, 10.63 -0.03 M0.13 12.04 C3.58 8.07, 7.03 4.11, 10.63 -0.03 M-0.13 18.44 C5.89 11.51, 11.92 4.58, 15.62 0.33 M-0.13 18.44 C4.72 12.86, 9.58 7.27, 15.62 0.33 M0.27 24.08 C7.59 15.65, 14.92 7.23, 21.26 -0.07 M0.27 24.08 C5.17 18.44, 10.07 12.8, 21.26 -0.07 M0 30.48 C6.59 22.9, 13.18 15.32, 26.25 0.29 M0 30.48 C5.87 23.73, 11.74 16.98, 26.25 0.29 M5.65 30.08 C14.7 19.67, 23.75 9.26, 31.89 -0.1 M5.65 30.08 C11.12 23.79, 16.6 17.49, 31.89 -0.1 M10.63 30.45 C17.92 22.07, 25.2 13.69, 36.88 0.26 M10.63 30.45 C17.83 22.17, 25.03 13.89, 36.88 0.26 M16.28 30.05 C22.7 22.66, 29.12 15.28, 42.52 -0.14 M16.28 30.05 C21.66 23.86, 27.04 17.67, 42.52 -0.14 M21.27 30.41 C30.33 19.98, 39.4 9.55, 47.51 0.22 M21.27 30.41 C27.27 23.51, 33.27 16.6, 47.51 0.22 M26.91 30.02 C35.83 19.75, 44.75 9.49, 53.15 -0.17 M26.91 30.02 C36.33 19.18, 45.75 8.34, 53.15 -0.17 M31.9 30.38 C37.25 24.21, 42.61 18.04, 58.14 0.19 M31.9 30.38 C40.82 20.1, 49.75 9.83, 58.14 0.19 M37.54 29.98 C45.09 21.3, 52.64 12.61, 63.78 -0.21 M37.54 29.98 C47.79 18.19, 58.04 6.39, 63.78 -0.21 M42.53 30.34 C49.57 22.23, 56.62 14.13, 68.77 0.15 M42.53 30.34 C51.61 19.89, 60.7 9.44, 68.77 0.15 M48.17 29.95 C56.32 20.57, 64.47 11.19, 74.41 -0.24 M48.17 29.95 C53.54 23.77, 58.91 17.6, 74.41 -0.24 M53.16 30.31 C58.9 23.69, 64.65 17.08, 79.4 0.12 M53.16 30.31 C60.2 22.2, 67.25 14.1, 79.4 0.12 M58.8 29.91 C69.22 17.93, 79.64 5.94, 85.04 -0.28 M58.8 29.91 C66.4 21.16, 74.01 12.41, 85.04 -0.28 M63.79 30.27 C69.08 24.18, 74.38 18.09, 90.03 0.08 M63.79 30.27 C69.38 23.84, 74.98 17.4, 90.03 0.08 M69.43 29.88 C77.33 20.79, 85.23 11.7, 95.67 -0.31 M69.43 29.88 C77.82 20.22, 86.21 10.57, 95.67 -0.31 M74.42 30.24 C80.42 23.33, 86.42 16.43, 100.66 0.05 M74.42 30.24 C84.15 19.04, 93.89 7.84, 100.66 0.05 M80.06 29.84 C89.03 19.52, 98.01 9.2, 106.3 -0.34 M80.06 29.84 C89.3 19.21, 98.55 8.58, 106.3 -0.34 M85.05 30.2 C94.94 18.82, 104.83 7.44, 111.29 0.02 M85.05 30.2 C90.73 23.66, 96.42 17.12, 111.29 0.02 M90.03 30.56 C95.42 24.37, 100.8 18.17, 116.27 0.38 M90.03 30.56 C96.05 23.64, 102.07 16.72, 116.27 0.38 M95.68 30.17 C105.14 19.28, 114.6 8.4, 119.95 2.24 M95.68 30.17 C103.2 21.52, 110.72 12.86, 119.95 2.24 M100.66 30.53 C107.16 23.05, 113.66 15.58, 119.69 8.64 M100.66 30.53 C107.85 22.27, 115.03 14, 119.69 8.64 M106.31 30.13 C110.1 25.77, 113.9 21.4, 120.08 14.29 M106.31 30.13 C110.36 25.47, 114.41 20.81, 120.08 14.29 M111.29 30.49 C114.43 26.89, 117.56 23.28, 119.82 20.68 M111.29 30.49 C113.06 28.46, 114.84 26.42, 119.82 20.68" stroke="#228be6" stroke-width="0.5" fill="none"></path><path d="M0 0 C43.6 0, 87.21 0, 117 0 M0 0 C33.25 0, 66.5 0, 117 0 M117 0 C117 8.15, 117 16.29, 117 30 M117 0 C117 10.56, 117 21.12, 117 30 M117 30 C75.49 30, 33.97 30, 0 30 M117 30 C88.4 30, 59.8 30, 0 30 M0 30 C0 20.63, 0 11.27, 0 0 M0 30 C0 23.1, 0 16.19, 0 0" stroke="#343a40" stroke-width="1" fill="none"></path></g><g transform="translate(844.1667785644531 181.66661071777344) rotate(0 43 10)"><text x="43" y="14" font-family="Virgil, Segoe UI Emoji" font-size="16px" fill="#343a40" text-anchor="middle" style="white-space: pre;" direction="ltr">CommndBus</text></g><g stroke-linecap="round" transform="translate(767.0001525878906 134.1666259765625) rotate(0 82 17.5)"><path d="M0 0 C60.31 0, 120.62 0, 164 0 M0 0 C40.6 0, 81.2 0, 164 0 M164 0 C164 12.42, 164 24.85, 164 35 M164 0 C164 9.94, 164 19.89, 164 35 M164 35 C108.02 35, 52.03 35, 0 35 M164 35 C98.89 35, 33.77 35, 0 35 M0 35 C0 21.11, 0 7.22, 0 0 M0 35 C0 24.92, 0 14.84, 0 0" stroke="#087f5b" stroke-width="1" fill="none"></path></g><g transform="translate(774.0001525878906 139.1666259765625) rotate(0 75 12.5)"><text x="75" y="17" font-family="Virgil, Segoe UI Emoji" font-size="20px" fill="#087f5b" text-anchor="middle" style="white-space: pre;" direction="ltr">Command REST</text></g><g stroke-linecap="round" transform="translate(977.3334655761719 130.3332977294922) rotate(0 63.33331298828125 17.333328247070312)"><path d="M0 0 C47.98 0, 95.96 0, 126.67 0 M0 0 C29.98 0, 59.96 0, 126.67 0 M126.67 0 C126.67 13.25, 126.67 26.5, 126.67 34.67 M126.67 0 C126.67 8.57, 126.67 17.13, 126.67 34.67 M126.67 34.67 C98.54 34.67, 70.42 34.67, 0 34.67 M126.67 34.67 C82.41 34.67, 38.15 34.67, 0 34.67 M0 34.67 C0 24.65, 0 14.64, 0 0 M0 34.67 C0 23.99, 0 13.31, 0 0" stroke="#1864ab" stroke-width="1" fill="none"></path></g><g transform="translate(992.1667785644531 137.6666259765625) rotate(0 48.5 10)"><text x="48.5" y="14" font-family="Virgil, Segoe UI Emoji" font-size="16px" fill="#1864ab" text-anchor="middle" style="white-space: pre;" direction="ltr">Query REST</text></g><g stroke-linecap="round" transform="translate(978.1667785644531 172.6666259765625) rotate(0 58.5 15)"><path d="M0 0 C0 0, 0 0, 0 0 M0 0 C0 0, 0 0, 0 0 M-0.26 6.4 C1.66 4.19, 3.58 1.98, 4.99 0.36 M-0.26 6.4 C1.38 4.51, 3.02 2.62, 4.99 0.36 M0.13 12.04 C4.06 7.52, 7.99 3, 10.63 -0.03 M0.13 12.04 C2.95 8.8, 5.78 5.55, 10.63 -0.03 M-0.13 18.44 C6.06 11.32, 12.26 4.19, 15.62 0.33 M-0.13 18.44 C4.74 12.84, 9.61 7.24, 15.62 0.33 M0.27 24.08 C6.71 16.67, 13.15 9.26, 21.26 -0.07 M0.27 24.08 C7.12 16.19, 13.98 8.3, 21.26 -0.07 M0 30.48 C9.43 19.63, 18.86 8.79, 26.25 0.29 M0 30.48 C7.9 21.39, 15.8 12.3, 26.25 0.29 M5.65 30.08 C13.81 20.69, 21.98 11.3, 31.89 -0.1 M5.65 30.08 C12 22.78, 18.35 15.47, 31.89 -0.1 M10.63 30.45 C21.03 18.49, 31.42 6.53, 36.88 0.26 M10.63 30.45 C19.39 20.38, 28.14 10.31, 36.88 0.26 M16.28 30.05 C23.54 21.69, 30.81 13.34, 42.52 -0.14 M16.28 30.05 C23.55 21.68, 30.82 13.32, 42.52 -0.14 M21.27 30.41 C26.55 24.33, 31.84 18.25, 47.51 0.22 M21.27 30.41 C27.46 23.28, 33.66 16.15, 47.51 0.22 M26.91 30.02 C36.34 19.16, 45.78 8.31, 53.15 -0.17 M26.91 30.02 C36.85 18.57, 46.8 7.13, 53.15 -0.17 M31.9 30.38 C38.16 23.17, 44.42 15.97, 58.14 0.19 M31.9 30.38 C37.75 23.64, 43.6 16.91, 58.14 0.19 M37.54 29.98 C47.52 18.5, 57.51 7.01, 63.78 -0.21 M37.54 29.98 C47.48 18.55, 57.41 7.12, 63.78 -0.21 M42.53 30.34 C51.36 20.17, 60.2 10.01, 68.77 0.15 M42.53 30.34 C50.2 21.51, 57.88 12.68, 68.77 0.15 M48.17 29.95 C54.11 23.12, 60.04 16.29, 74.41 -0.24 M48.17 29.95 C58.45 18.12, 68.73 6.29, 74.41 -0.24 M53.16 30.31 C60.77 21.54, 68.39 12.78, 79.4 0.12 M53.16 30.31 C59.12 23.44, 65.09 16.57, 79.4 0.12 M58.8 29.91 C65.34 22.38, 71.89 14.86, 85.04 -0.28 M58.8 29.91 C64.53 23.32, 70.26 16.73, 85.04 -0.28 M63.79 30.27 C70.59 22.44, 77.4 14.61, 90.03 0.08 M63.79 30.27 C74.15 18.35, 84.51 6.43, 90.03 0.08 M69.43 29.88 C76.46 21.79, 83.49 13.71, 95.67 -0.31 M69.43 29.88 C78.42 19.54, 87.41 9.19, 95.67 -0.31 M74.42 30.24 C84.13 19.07, 93.84 7.9, 100.66 0.05 M74.42 30.24 C83.5 19.79, 92.59 9.33, 100.66 0.05 M80.06 29.84 C89.64 18.82, 99.23 7.79, 106.3 -0.34 M80.06 29.84 C88.8 19.78, 97.55 9.72, 106.3 -0.34 M85.05 30.2 C93.27 20.74, 101.5 11.28, 111.29 0.02 M85.05 30.2 C90.75 23.64, 96.46 17.07, 111.29 0.02 M90.03 30.56 C97.67 21.78, 105.31 12.99, 116.27 0.38 M90.03 30.56 C96.42 23.22, 102.81 15.87, 116.27 0.38 M95.68 30.17 C104.1 20.48, 112.52 10.79, 119.95 2.24 M95.68 30.17 C103.66 20.98, 111.65 11.79, 119.95 2.24 M100.66 30.53 C105.61 24.84, 110.55 19.16, 119.69 8.64 M100.66 30.53 C104.67 25.92, 108.67 21.31, 119.69 8.64 M106.31 30.13 C110.34 25.49, 114.38 20.84, 120.08 14.29 M106.31 30.13 C111.61 24.03, 116.92 17.92, 120.08 14.29 M111.29 30.49 C114.3 27.04, 117.3 23.58, 119.82 20.68 M111.29 30.49 C113.48 27.98, 115.67 25.46, 119.82 20.68" stroke="#228be6" stroke-width="0.5" fill="none"></path><path d="M0 0 C34.1 0, 68.2 0, 117 0 M0 0 C32.81 0, 65.61 0, 117 0 M117 0 C117 6.83, 117 13.66, 117 30 M117 0 C117 7.38, 117 14.76, 117 30 M117 30 C82.79 30, 48.58 30, 0 30 M117 30 C82.24 30, 47.47 30, 0 30 M0 30 C0 20.67, 0 11.33, 0 0 M0 30 C0 22.49, 0 14.98, 0 0" stroke="#343a40" stroke-width="1" fill="none"></path></g><g transform="translate(999.6667785644531 177.6666259765625) rotate(0 37 10)"><text x="37" y="14" font-family="Virgil, Segoe UI Emoji" font-size="16px" fill="#343a40" text-anchor="middle" style="white-space: pre;" direction="ltr">QueryBus</text></g><g stroke-linecap="round" transform="translate(1002.6668395996094 335.6666564941406) rotate(0 66.3333740234375 15)"><path d="M0 0 C0 0, 0 0, 0 0 M0 0 C0 0, 0 0, 0 0 M-0.26 6.4 C0.83 5.14, 1.92 3.89, 4.99 0.36 M-0.26 6.4 C1.34 4.56, 2.93 2.72, 4.99 0.36 M0.13 12.04 C3.29 8.41, 6.44 4.79, 10.63 -0.03 M0.13 12.04 C4.27 7.28, 8.4 2.53, 10.63 -0.03 M-0.13 18.44 C5.24 12.26, 10.61 6.09, 15.62 0.33 M-0.13 18.44 C5.1 12.43, 10.32 6.42, 15.62 0.33 M0.27 24.08 C7.98 15.21, 15.68 6.35, 21.26 -0.07 M0.27 24.08 C5.4 18.18, 10.53 12.28, 21.26 -0.07 M0 30.48 C5.31 24.38, 10.61 18.27, 26.25 0.29 M0 30.48 C8.4 20.82, 16.8 11.16, 26.25 0.29 M5.65 30.08 C11.17 23.73, 16.69 17.38, 31.89 -0.1 M5.65 30.08 C14.89 19.45, 24.13 8.82, 31.89 -0.1 M10.63 30.45 C17.32 22.76, 24 15.07, 36.88 0.26 M10.63 30.45 C18.07 21.9, 25.5 13.35, 36.88 0.26 M16.28 30.05 C22.87 22.47, 29.46 14.88, 42.52 -0.14 M16.28 30.05 C25.42 19.53, 34.56 9.02, 42.52 -0.14 M21.27 30.41 C29.85 20.53, 38.44 10.65, 47.51 0.22 M21.27 30.41 C27.03 23.78, 32.79 17.16, 47.51 0.22 M26.91 30.02 C36.78 18.66, 46.66 7.3, 53.15 -0.17 M26.91 30.02 C36.06 19.49, 45.21 8.97, 53.15 -0.17 M31.9 30.38 C37.53 23.9, 43.16 17.41, 58.14 0.19 M31.9 30.38 C40.08 20.96, 48.26 11.55, 58.14 0.19 M37.54 29.98 C46.41 19.78, 55.28 9.57, 63.78 -0.21 M37.54 29.98 C46.8 19.33, 56.06 8.67, 63.78 -0.21 M42.53 30.34 C49.8 21.98, 57.07 13.61, 68.77 0.15 M42.53 30.34 C51.12 20.46, 59.71 10.58, 68.77 0.15 M48.17 29.95 C57.47 19.25, 66.77 8.54, 74.41 -0.24 M48.17 29.95 C54.61 22.53, 61.06 15.12, 74.41 -0.24 M53.16 30.31 C59.46 23.05, 65.77 15.79, 79.4 0.12 M53.16 30.31 C58.86 23.74, 64.57 17.18, 79.4 0.12 M58.8 29.91 C66.92 20.58, 75.03 11.24, 85.04 -0.28 M58.8 29.91 C69.17 17.98, 79.55 6.05, 85.04 -0.28 M63.79 30.27 C74.18 18.32, 84.57 6.37, 90.03 0.08 M63.79 30.27 C72.13 20.67, 80.48 11.07, 90.03 0.08 M69.43 29.88 C78.66 19.26, 87.89 8.64, 95.67 -0.31 M69.43 29.88 C76.12 22.18, 82.82 14.47, 95.67 -0.31 M74.42 30.24 C79.69 24.17, 84.96 18.11, 100.66 0.05 M74.42 30.24 C83.59 19.68, 92.76 9.13, 100.66 0.05 M80.06 29.84 C87.84 20.89, 95.63 11.93, 106.3 -0.34 M80.06 29.84 C89.57 18.9, 99.09 7.96, 106.3 -0.34 M85.05 30.2 C92.34 21.82, 99.63 13.43, 111.29 0.02 M85.05 30.2 C90.73 23.67, 96.41 17.13, 111.29 0.02 M90.03 30.56 C95.93 23.78, 101.82 17, 116.27 0.38 M90.03 30.56 C98.94 20.32, 107.84 10.08, 116.27 0.38 M95.68 30.17 C101.32 23.67, 106.97 17.17, 121.92 -0.02 M95.68 30.17 C101.13 23.89, 106.58 17.62, 121.92 -0.02 M100.66 30.53 C108.06 22.02, 115.45 13.51, 126.91 0.34 M100.66 30.53 C108.32 21.72, 115.97 12.92, 126.91 0.34 M106.31 30.13 C115.94 19.06, 125.57 7.98, 132.55 -0.05 M106.31 30.13 C116.73 18.15, 127.14 6.16, 132.55 -0.05 M111.29 30.49 C118.09 22.68, 124.88 14.86, 135.57 2.57 M111.29 30.49 C116.4 24.62, 121.5 18.75, 135.57 2.57 M116.94 30.1 C121.58 24.76, 126.22 19.42, 135.31 8.97 M116.94 30.1 C121.38 24.99, 125.82 19.88, 135.31 8.97 M121.92 30.46 C126.01 25.76, 130.09 21.07, 135.7 14.61 M121.92 30.46 C127.02 24.6, 132.12 18.73, 135.7 14.61 M127.57 30.07 C130.38 26.83, 133.19 23.59, 135.44 21.01 M127.57 30.07 C130.59 26.58, 133.62 23.1, 135.44 21.01" stroke="#fa5252" stroke-width="0.5" fill="none"></path><path d="M0 0 C43.93 0, 87.86 0, 132.67 0 M0 0 C45.11 0, 90.21 0, 132.67 0 M132.67 0 C132.67 8.99, 132.67 17.99, 132.67 30 M132.67 0 C132.67 11.93, 132.67 23.87, 132.67 30 M132.67 30 C87.64 30, 42.61 30, 0 30 M132.67 30 C84.64 30, 36.61 30, 0 30 M0 30 C0 20.86, 0 11.72, 0 0 M0 30 C0 23.76, 0 17.52, 0 0" stroke="#a61e4d" stroke-width="1" fill="none"></path></g><g transform="translate(1028.0002136230469 340.6666564941406) rotate(0 41 10)"><text x="41" y="14" font-family="Virgil, Segoe UI Emoji" font-size="16px" fill="#a61e4d" text-anchor="middle" style="white-space: pre;" direction="ltr">Repository</text></g><g stroke-linecap="round" transform="translate(765.3335266113281 341.6665954589844) rotate(0 86 15)"><path d="M0 0 C0 0, 0 0, 0 0 M0 0 C0 0, 0 0, 0 0 M-0.26 6.4 C0.99 4.96, 2.24 3.52, 4.99 0.36 M-0.26 6.4 C1.34 4.55, 2.95 2.7, 4.99 0.36 M0.13 12.04 C2.23 9.63, 4.33 7.21, 10.63 -0.03 M0.13 12.04 C2.46 9.36, 4.79 6.68, 10.63 -0.03 M-0.13 18.44 C5.77 11.65, 11.67 4.86, 15.62 0.33 M-0.13 18.44 C3.46 14.31, 7.05 10.18, 15.62 0.33 M0.27 24.08 C6.25 17.19, 12.24 10.3, 21.26 -0.07 M0.27 24.08 C6.43 16.99, 12.6 9.89, 21.26 -0.07 M0 30.48 C8.75 20.42, 17.49 10.37, 26.25 0.29 M0 30.48 C6.74 22.73, 13.48 14.98, 26.25 0.29 M5.65 30.08 C14.98 19.35, 24.31 8.61, 31.89 -0.1 M5.65 30.08 C15.25 19.04, 24.86 7.99, 31.89 -0.1 M10.63 30.45 C20.64 18.93, 30.65 7.42, 36.88 0.26 M10.63 30.45 C16.57 23.62, 22.5 16.8, 36.88 0.26 M16.28 30.05 C26.43 18.37, 36.59 6.69, 42.52 -0.14 M16.28 30.05 C25.21 19.78, 34.13 9.51, 42.52 -0.14 M21.27 30.41 C27.91 22.77, 34.55 15.13, 47.51 0.22 M21.27 30.41 C27.95 22.72, 34.63 15.03, 47.51 0.22 M26.91 30.02 C35.33 20.33, 43.74 10.65, 53.15 -0.17 M26.91 30.02 C34.84 20.89, 42.77 11.77, 53.15 -0.17 M31.9 30.38 C41.02 19.88, 50.14 9.39, 58.14 0.19 M31.9 30.38 C40.97 19.94, 50.05 9.49, 58.14 0.19 M37.54 29.98 C44.47 22.01, 51.4 14.04, 63.78 -0.21 M37.54 29.98 C46 20.25, 54.46 10.51, 63.78 -0.21 M42.53 30.34 C51.18 20.39, 59.83 10.43, 68.77 0.15 M42.53 30.34 C52.68 18.66, 62.83 6.98, 68.77 0.15 M48.17 29.95 C55.77 21.2, 63.37 12.46, 74.41 -0.24 M48.17 29.95 C54.87 22.23, 61.58 14.52, 74.41 -0.24 M53.16 30.31 C61.82 20.34, 70.48 10.38, 79.4 0.12 M53.16 30.31 C62.33 19.75, 71.51 9.19, 79.4 0.12 M58.8 29.91 C64.98 22.8, 71.17 15.68, 85.04 -0.28 M58.8 29.91 C67.73 19.64, 76.66 9.37, 85.04 -0.28 M63.79 30.27 C72.83 19.86, 81.88 9.45, 90.03 0.08 M63.79 30.27 C71.41 21.5, 79.03 12.73, 90.03 0.08 M69.43 29.88 C77.47 20.63, 85.5 11.39, 95.67 -0.31 M69.43 29.88 C74.68 23.83, 79.94 17.79, 95.67 -0.31 M74.42 30.24 C80.6 23.13, 86.78 16.01, 100.66 0.05 M74.42 30.24 C83.59 19.68, 92.77 9.12, 100.66 0.05 M80.06 29.84 C87.17 21.66, 94.28 13.48, 106.3 -0.34 M80.06 29.84 C86.44 22.5, 92.82 15.16, 106.3 -0.34 M85.05 30.2 C93.7 20.25, 102.36 10.29, 111.29 0.02 M85.05 30.2 C94.3 19.56, 103.55 8.92, 111.29 0.02 M90.03 30.56 C96.99 22.57, 103.94 14.57, 116.27 0.38 M90.03 30.56 C96.89 22.68, 103.74 14.79, 116.27 0.38 M95.68 30.17 C101.47 23.51, 107.25 16.85, 121.92 -0.02 M95.68 30.17 C101.14 23.89, 106.6 17.61, 121.92 -0.02 M100.66 30.53 C110.87 18.78, 121.08 7.04, 126.91 0.34 M100.66 30.53 C106.72 23.56, 112.78 16.59, 126.91 0.34 M106.31 30.13 C115.92 19.07, 125.54 8, 132.55 -0.05 M106.31 30.13 C114.44 20.77, 122.58 11.41, 132.55 -0.05 M111.29 30.49 C119.42 21.14, 127.55 11.79, 137.54 0.31 M111.29 30.49 C119.51 21.05, 127.72 11.6, 137.54 0.31 M116.94 30.1 C124.6 21.29, 132.26 12.48, 143.18 -0.09 M116.94 30.1 C125.77 19.93, 134.61 9.77, 143.18 -0.09 M121.92 30.46 C128.72 22.64, 135.52 14.82, 148.17 0.27 M121.92 30.46 C128.56 22.83, 135.19 15.19, 148.17 0.27 M127.57 30.07 C137.71 18.4, 147.85 6.73, 153.81 -0.12 M127.57 30.07 C134.14 22.51, 140.71 14.95, 153.81 -0.12 M132.55 30.43 C138.71 23.34, 144.88 16.25, 158.8 0.24 M132.55 30.43 C142.53 18.95, 152.5 7.48, 158.8 0.24 M138.2 30.03 C146.23 20.79, 154.26 11.55, 164.44 -0.16 M138.2 30.03 C146.01 21.04, 153.83 12.04, 164.44 -0.16 M143.18 30.39 C148.44 24.35, 153.69 18.3, 169.43 0.2 M143.18 30.39 C148.66 24.09, 154.14 17.79, 169.43 0.2 M148.83 30 C158.09 19.34, 167.35 8.69, 173.76 1.32 M148.83 30 C154.07 23.96, 159.32 17.93, 173.76 1.32 M153.81 30.36 C159.41 23.92, 165 17.48, 173.49 7.72 M153.81 30.36 C158.48 24.99, 163.15 19.61, 173.49 7.72 M159.46 29.96 C164.79 23.82, 170.13 17.69, 173.89 13.36 M159.46 29.96 C162.4 26.58, 165.33 23.2, 173.89 13.36 M164.44 30.32 C167.95 26.29, 171.45 22.26, 173.63 19.76 M164.44 30.32 C167.64 26.64, 170.84 22.96, 173.63 19.76 M170.09 29.93 C171.24 28.6, 172.4 27.26, 173.37 26.15 M170.09 29.93 C171.32 28.5, 172.56 27.08, 173.37 26.15" stroke="#12b886" stroke-width="0.5" fill="none"></path><path d="M0 0 C65.6 0, 131.2 0, 172 0 M0 0 C61.96 0, 123.92 0, 172 0 M172 0 C172 8.61, 172 17.21, 172 30 M172 0 C172 7.95, 172 15.9, 172 30 M172 30 C118.7 30, 65.4 30, 0 30 M172 30 C103.91 30, 35.83 30, 0 30 M0 30 C0 20.36, 0 10.73, 0 0 M0 30 C0 19.8, 0 9.6, 0 0" stroke="#087f5b" stroke-width="1" fill="none"></path></g><g transform="translate(780.8335266113281 346.6665954589844) rotate(0 70.5 10)"><text x="70.5" y="14" font-family="Virgil, Segoe UI Emoji" font-size="16px" fill="#087f5b" text-anchor="middle" style="white-space: pre;" direction="ltr">Event Store Repo</text></g><g stroke-linecap="round" transform="translate(41.333282470703125 486.33331298828125) rotate(0 137.5 49.5)"><path d="M0 0 C71.72 0, 143.45 0, 275 0 M0 0 C65.11 0, 130.21 0, 275 0 M275 0 C275 22.49, 275 44.97, 275 99 M275 0 C275 26.25, 275 52.49, 275 99 M275 99 C212.58 99, 150.16 99, 0 99 M275 99 C197.38 99, 119.77 99, 0 99 M0 99 C0 79.01, 0 59.02, 0 0 M0 99 C0 69.46, 0 39.92, 0 0" stroke="#000000" stroke-width="1" fill="none"></path></g><g transform="translate(49.833282470703125 523.3333129882812) rotate(0 129 12.5)"><text x="129" y="17" font-family="Virgil, Segoe UI Emoji" font-size="20px" fill="#000000" text-anchor="middle" style="white-space: pre;" direction="ltr">Radar-management-service</text></g><g stroke-linecap="round" transform="translate(389.8334045410156 415.8333740234375) rotate(0 148.5 49.5)"><path d="M0 0 C117.54 0, 235.08 0, 297 0 M0 0 C110.26 0, 220.51 0, 297 0 M297 0 C297 26.33, 297 52.67, 297 99 M297 0 C297 25.91, 297 51.82, 297 99 M297 99 C180.89 99, 64.78 99, 0 99 M297 99 C219.67 99, 142.34 99, 0 99 M0 99 C0 60.79, 0 22.59, 0 0 M0 99 C0 73.47, 0 47.94, 0 0" stroke="#000000" stroke-width="1" fill="none"></path></g><g transform="translate(397.8334045410156 440.3333740234375) rotate(0 140.5 25)"><text x="140.5" y="17" font-family="Virgil, Segoe UI Emoji" font-size="20px" fill="#000000" text-anchor="middle" style="white-space: pre;" direction="ltr">Immatriculation-management-</text><text x="140.5" y="42" font-family="Virgil, Segoe UI Emoji" font-size="20px" fill="#000000" text-anchor="middle" style="white-space: pre;" direction="ltr">service</text></g><g stroke-linecap="round" transform="translate(366.6667175292969 178) rotate(0 97 75.5)"><path d="M194 75.5 C194 78.13, 193.82 80.78, 193.47 83.39 C193.12 86.01, 192.58 88.62, 191.88 91.2 C191.18 93.77, 190.3 96.33, 189.25 98.83 C188.21 101.33, 186.99 103.81, 185.61 106.21 C184.24 108.61, 182.69 110.97, 181 113.25 C179.31 115.53, 177.46 117.75, 175.47 119.88 C173.49 122.01, 171.35 124.06, 169.09 126.02 C166.82 127.97, 164.42 129.85, 161.91 131.61 C159.39 133.37, 156.75 135.03, 154.02 136.58 C151.28 138.13, 148.43 139.57, 145.5 140.88 C142.57 142.2, 139.54 143.4, 136.45 144.47 C133.37 145.54, 130.19 146.49, 126.97 147.3 C123.76 148.12, 120.47 148.8, 117.17 149.35 C113.86 149.9, 110.5 150.31, 107.14 150.59 C103.78 150.86, 100.38 151, 97 151 C93.62 151, 90.22 150.86, 86.86 150.59 C83.5 150.31, 80.14 149.9, 76.83 149.35 C73.53 148.8, 70.24 148.12, 67.03 147.3 C63.81 146.49, 60.63 145.54, 57.55 144.47 C54.46 143.4, 51.43 142.2, 48.5 140.88 C45.57 139.57, 42.72 138.13, 39.98 136.58 C37.25 135.03, 34.61 133.37, 32.09 131.61 C29.58 129.85, 27.18 127.97, 24.91 126.02 C22.65 124.06, 20.51 122.01, 18.53 119.88 C16.54 117.75, 14.69 115.53, 13 113.25 C11.31 110.97, 9.76 108.61, 8.39 106.21 C7.01 103.81, 5.79 101.33, 4.75 98.83 C3.7 96.33, 2.82 93.77, 2.12 91.2 C1.42 88.62, 0.88 86.01, 0.53 83.39 C0.18 80.78, 0 78.13, 0 75.5 C0 72.87, 0.18 70.22, 0.53 67.61 C0.88 64.99, 1.42 62.38, 2.12 59.8 C2.82 57.23, 3.7 54.67, 4.75 52.17 C5.79 49.67, 7.01 47.19, 8.39 44.79 C9.76 42.39, 11.31 40.03, 13 37.75 C14.69 35.47, 16.54 33.25, 18.53 31.12 C20.51 28.99, 22.65 26.94, 24.91 24.98 C27.18 23.03, 29.58 21.15, 32.09 19.39 C34.61 17.63, 37.25 15.97, 39.98 14.42 C42.72 12.87, 45.57 11.43, 48.5 10.12 C51.43 8.8, 54.46 7.6, 57.55 6.53 C60.63 5.46, 63.81 4.51, 67.03 3.7 C70.24 2.88, 73.53 2.2, 76.83 1.65 C80.14 1.1, 83.5 0.69, 86.86 0.41 C90.22 0.14, 93.62 0, 97 0 C100.38 0, 103.78 0.14, 107.14 0.41 C110.5 0.69, 113.86 1.1, 117.17 1.65 C120.47 2.2, 123.76 2.88, 126.97 3.7 C130.19 4.51, 133.37 5.46, 136.45 6.53 C139.54 7.6, 142.57 8.8, 145.5 10.12 C148.43 11.43, 151.28 12.87, 154.02 14.42 C156.75 15.97, 159.39 17.63, 161.91 19.39 C164.42 21.15, 166.82 23.03, 169.09 24.98 C171.35 26.94, 173.49 28.99, 175.47 31.12 C177.46 33.25, 179.31 35.47, 181 37.75 C182.69 40.03, 184.24 42.39, 185.61 44.79 C186.99 47.19, 188.21 49.67, 189.25 52.17 C190.3 54.67, 191.18 57.23, 191.88 59.8 C192.58 62.38, 193.12 64.99, 193.47 67.61 C193.82 70.22, 193.91 74.18, 194 75.5 C194.09 76.82, 194.09 74.18, 194 75.5" stroke="#087f5b" stroke-width="1" fill="none"></path></g><g transform="translate(382.6667175292969 241) rotate(0 81 12.5)"><text x="81" y="17" font-family="Virgil, Segoe UI Emoji" font-size="20px" fill="#087f5b" text-anchor="middle" style="white-space: pre;" direction="ltr">Gateway-service</text></g><g stroke-linecap="round" transform="translate(10 172.00003051757812) rotate(0 102 54)"><path d="M27 0 M27 0 C74.04 0, 121.08 0, 177 0 M27 0 C62.8 0, 98.6 0, 177 0 M177 0 C195 0, 204 9, 204 27 M177 0 C195 0, 204 9, 204 27 M204 27 C204 47.61, 204 68.21, 204 81 M204 27 C204 43.14, 204 59.28, 204 81 M204 81 C204 99, 195 108, 177 108 M204 81 C204 99, 195 108, 177 108 M177 108 C120.81 108, 64.63 108, 27 108 M177 108 C130.51 108, 84.01 108, 27 108 M27 108 C9 108, 0 99, 0 81 M27 108 C9 108, 0 99, 0 81 M0 81 C0 65.24, 0 49.47, 0 27 M0 81 C0 64.18, 0 47.36, 0 27 M0 27 C0 9, 9 0, 27 0 M0 27 C0 9, 9 0, 27 0" stroke="#c92a2a" stroke-width="1" fill="none"></path></g><g transform="translate(30.5 213.50003051757812) rotate(0 81.5 12.5)"><text x="81.5" y="17" font-family="Virgil, Segoe UI Emoji" font-size="20px" fill="#c92a2a" text-anchor="middle" style="white-space: pre;" direction="ltr">discovery-service</text></g><g transform="translate(699.9998474121094 533.6667785644531) rotate(0 46 12.5)"><text x="0" y="18" font-family="Virgil, Segoe UI Emoji" font-size="20px" fill="#364fc7" text-anchor="start" style="white-space: pre;" direction="ltr">OpenFeign</text></g><g stroke-linecap="round"><g transform="translate(453.40036556313476 68) rotate(0 0.22411212425356553 48.58887025526835)"><path d="M0 0 C0.07 16.2, 0.37 80.98, 0.45 97.18 M0 0 C0.07 16.2, 0.37 80.98, 0.45 97.18" stroke="#d9480f" stroke-width="4" fill="none"></path></g><g transform="translate(453.40036556313476 68) rotate(0 0.22411212425356553 48.58887025526835)"><path d="M-9.94 69.03 C-6.21 79.13, -2.49 89.23, 0.45 97.18 M-9.94 69.03 C-7.52 75.6, -5.09 82.17, 0.45 97.18" stroke="#d9480f" stroke-width="4" fill="none"></path></g><g transform="translate(453.40036556313476 68) rotate(0 0.22411212425356553 48.58887025526835)"><path d="M10.58 68.94 C6.94 79.07, 3.31 89.21, 0.45 97.18 M10.58 68.94 C8.22 75.53, 5.85 82.11, 0.45 97.18" stroke="#d9480f" stroke-width="4" fill="none"></path></g></g><mask></mask><g stroke-linecap="round"><g transform="translate(351.3333435058594 236.66665649414062) rotate(0 -65.33331298828125 1)"><path d="M0 0 C-21.78 0.33, -108.89 1.67, -130.67 2 M0 0 C-21.78 0.33, -108.89 1.67, -130.67 2" stroke="#343a40" stroke-width="2" fill="none"></path></g><g transform="translate(351.3333435058594 236.66665649414062) rotate(0 -65.33331298828125 1)"><path d="M-102.64 -8.69 C-109.93 -5.91, -117.22 -3.13, -130.67 2 M-102.64 -8.69 C-108.9 -6.3, -115.16 -3.91, -130.67 2" stroke="#343a40" stroke-width="2" fill="none"></path></g><g transform="translate(351.3333435058594 236.66665649414062) rotate(0 -65.33331298828125 1)"><path d="M-102.32 11.83 C-109.7 9.27, -117.07 6.71, -130.67 2 M-102.32 11.83 C-108.65 9.63, -114.99 7.44, -130.67 2" stroke="#343a40" stroke-width="2" fill="none"></path></g></g><mask></mask><g stroke-linecap="round"><g transform="translate(228.00003051757812 266.6666564941406) rotate(0 62.333343505859375 0)"><path d="M0 0 C20.78 0, 103.89 0, 124.67 0 M0 0 C20.78 0, 103.89 0, 124.67 0" stroke="#343a40" stroke-width="2" fill="none"></path></g><g transform="translate(228.00003051757812 266.6666564941406) rotate(0 62.333343505859375 0)"><path d="M96.48 10.26 C106.86 6.48, 117.25 2.7, 124.67 0 M96.48 10.26 C106.41 6.65, 116.34 3.03, 124.67 0" stroke="#343a40" stroke-width="2" fill="none"></path></g><g transform="translate(228.00003051757812 266.6666564941406) rotate(0 62.333343505859375 0)"><path d="M96.48 -10.26 C106.86 -6.48, 117.25 -2.7, 124.67 0 M96.48 -10.26 C106.41 -6.65, 116.34 -3.03, 124.67 0" stroke="#343a40" stroke-width="2" fill="none"></path></g></g><mask></mask><g stroke-linecap="round"><g transform="translate(390.597814456828 321.670263941734) rotate(0 -37.02471849327844 81.84316546052185)"><path d="M0 0 C-12.34 27.28, -61.71 136.41, -74.05 163.69 M0 0 C-12.34 27.28, -61.71 136.41, -74.05 163.69" stroke="#087f5b" stroke-width="2" fill="none"></path></g><g transform="translate(390.597814456828 321.670263941734) rotate(0 -37.02471849327844 81.84316546052185)"><path d="M-71.78 133.77 C-72.35 141.25, -72.91 148.72, -74.05 163.69 M-71.78 133.77 C-72.32 140.85, -72.85 147.94, -74.05 163.69" stroke="#087f5b" stroke-width="2" fill="none"></path></g><g transform="translate(390.597814456828 321.670263941734) rotate(0 -37.02471849327844 81.84316546052185)"><path d="M-53.08 142.23 C-58.32 147.59, -63.56 152.95, -74.05 163.69 M-53.08 142.23 C-58.05 147.31, -63.01 152.39, -74.05 163.69" stroke="#087f5b" stroke-width="2" fill="none"></path></g></g><mask></mask><g stroke-linecap="round"><g transform="translate(471.08880344888996 345.81359823674563) rotate(0 9.022434487689736 25.42655964627562)"><path d="M0 0 C3.01 8.48, 15.04 42.38, 18.04 50.85 M0 0 C3.01 8.48, 15.04 42.38, 18.04 50.85" stroke="#087f5b" stroke-width="2" fill="none"></path></g><g transform="translate(471.08880344888996 345.81359823674563) rotate(0 9.022434487689736 25.42655964627562)"><path d="M0.87 30.05 C5.33 35.45, 9.8 40.86, 18.04 50.85 M0.87 30.05 C6.27 36.58, 11.66 43.12, 18.04 50.85" stroke="#087f5b" stroke-width="2" fill="none"></path></g><g transform="translate(471.08880344888996 345.81359823674563) rotate(0 9.022434487689736 25.42655964627562)"><path d="M18.26 23.87 C18.21 30.89, 18.15 37.9, 18.04 50.85 M18.26 23.87 C18.19 32.35, 18.13 40.83, 18.04 50.85" stroke="#087f5b" stroke-width="2" fill="none"></path></g></g><mask></mask><g stroke-linecap="round"><g transform="translate(578.6667175292969 258.6666564941406) rotate(0 72.33331298828125 12)"><path d="M0 0 C24.11 4, 120.56 20, 144.67 24 M0 0 C24.11 4, 120.56 20, 144.67 24" stroke="#087f5b" stroke-width="2" fill="none"></path></g><g transform="translate(578.6667175292969 258.6666564941406) rotate(0 72.33331298828125 12)"><path d="M115.18 29.51 C122.46 28.15, 129.74 26.79, 144.67 24 M115.18 29.51 C124.77 27.72, 134.36 25.92, 144.67 24" stroke="#087f5b" stroke-width="2" fill="none"></path></g><g transform="translate(578.6667175292969 258.6666564941406) rotate(0 72.33331298828125 12)"><path d="M118.54 9.26 C124.99 12.9, 131.44 16.54, 144.67 24 M118.54 9.26 C127.04 14.06, 135.54 18.85, 144.67 24" stroke="#087f5b" stroke-width="2" fill="none"></path></g></g><mask></mask><g stroke-linecap="round"><g transform="translate(756.0000915527344 480.6666564941406) rotate(0 -26.39640586997166 17.429726832787765)"><path d="M0 0 C0.44 5.67, 12.56 29.89, 2.67 34 C-7.22 38.11, -49 26.22, -59.33 24.67 M0 0 C0.44 5.67, 12.56 29.89, 2.67 34 C-7.22 38.11, -49 26.22, -59.33 24.67" stroke="#5f3dc4" stroke-width="2" fill="none"></path></g><g transform="translate(756.0000915527344 480.6666564941406) rotate(0 -26.39640586997166 17.429726832787765)"><path d="M-29.61 20.6 C-37.13 21.63, -44.66 22.66, -59.33 24.67 M-29.61 20.6 C-39.03 21.89, -48.44 23.18, -59.33 24.67" stroke="#5f3dc4" stroke-width="2" fill="none"></path></g><g transform="translate(756.0000915527344 480.6666564941406) rotate(0 -26.39640586997166 17.429726832787765)"><path d="M-33.95 40.66 C-40.37 36.61, -46.8 32.56, -59.33 24.67 M-33.95 40.66 C-41.99 35.59, -50.03 30.53, -59.33 24.67" stroke="#5f3dc4" stroke-width="2" fill="none"></path></g></g><mask></mask><g stroke-linecap="round"><g transform="translate(792.0000915527344 478.6666564941406) rotate(0 -227.5571168369189 54.20402902586608)"><path d="M0 0 C-4.56 17.11, 51 86.78, -27.33 102.67 C-105.67 118.56, -396.22 96.56, -470 95.33 M0 0 C-4.56 17.11, 51 86.78, -27.33 102.67 C-105.67 118.56, -396.22 96.56, -470 95.33" stroke="#5f3dc4" stroke-width="2" fill="none"></path></g><g transform="translate(792.0000915527344 478.6666564941406) rotate(0 -227.5571168369189 54.20402902586608)"><path d="M-441.37 86.36 C-449.71 88.97, -458.05 91.59, -470 95.33 M-441.37 86.36 C-447.79 88.37, -454.21 90.38, -470 95.33" stroke="#5f3dc4" stroke-width="2" fill="none"></path></g><g transform="translate(792.0000915527344 478.6666564941406) rotate(0 -227.5571168369189 54.20402902586608)"><path d="M-442.3 106.86 C-450.37 103.5, -458.43 100.15, -470 95.33 M-442.3 106.86 C-448.51 104.27, -454.73 101.69, -470 95.33" stroke="#5f3dc4" stroke-width="2" fill="none"></path></g></g><mask></mask></svg>